# xmcd CD database file
#
# Track frame offsets:
#	150
#	12017
#	25448
#	40737
#	54383
#	66572
#	79332
#	95314
#	108562
#	118864
#	125787
#	141447
#	153378
#	164754
#
# Disc length: 2326 seconds
#
# Revision: 0
# Processed by: cddbd v1.5.2PL0 Copyright (c) Steve Scherf et al.
# Submitted via: CDex 1.70beta2
#
DISCID=ca09140e
DTITLE=dave brubeck - Giants of jazz
DYEAR=2003
DGENRE=Jazz
TTITLE0=singin' in the rain
TTITLE1=blue moon
TTITLE2=i'll remember april
TTITLE3=the way you look tonight
TTITLE4=ipca
TTITLE5=always
TTITLE6=lullaby in rhythm
TTITLE7=you stepped out of a dream
TTITLE8=i hear a rhapsody
TTITLE9=rondo
TTITLE10=september song
TTITLE11=love walked in
TTITLE12=undecided
TTITLE13=laura
EXTD=YEAR: 2003
EXTT0=
EXTT1=
EXTT2=
EXTT3=
EXTT4=
EXTT5=
EXTT6=
EXTT7=
EXTT8=
EXTT9=
EXTT10=
EXTT11=
EXTT12=
EXTT13=
PLAYORDER=
